<svg width="289" height="93" viewBox="0 0 289 93" fill="none" xmlns="http://www.w3.org/2000/svg">
<path d="M18.6977 69.2006C34.4945 69.2006 43.9945 60.4558 43.9945 48.7006C43.9945 39.9506 39.2914 35.0652 29.6039 31.6797C18.3175 27.8204 8.82267 24.2475 8.82267 15.3152C8.82267 8.82558 14.3695 4.59642 21.7029 4.59642C30.9216 4.59642 36.656 10.237 40.1352 20.9558L41.9216 20.6745L40.3227 3.09121C35.432 1.86725 30.5466 1.211 24.9945 1.211C12.0206 1.211 2.80184 9.29433 2.80184 19.6381C2.80184 29.0443 8.72892 34.4037 20.0102 38.3568C29.9789 41.836 37.1248 43.9975 37.1248 54.06C37.1248 61.2058 30.6404 66.0027 22.9268 66.0027C12.8643 66.0027 5.53101 60.2631 2.23934 47.7579L0.359131 48.0391L1.77059 66.9402C7.41121 68.5391 12.8643 69.2006 18.6977 69.2006Z" fill="#623817"/>
<path d="M71.2579 40.8933C87.5287 40.612 98.2475 32.8985 98.2475 20.3933C98.2475 9.86204 89.9714 1.961 76.1485 1.961C72.7631 1.961 67.4037 2.336 61.2891 2.336H49.0652V4.21621C56.3985 6.09642 56.4923 9.67454 56.4923 18.0391V52.1798C56.4923 60.5495 56.4923 64.1225 49.0652 66.0027V67.8829H72.5756V66.0027C65.1485 64.1225 64.9558 60.737 64.9558 52.1798V5.34642C67.4975 4.87767 70.2266 4.69017 72.7631 4.69017C83.6746 4.69017 89.1277 12.8672 89.1277 21.6172C89.1277 31.3933 82.3569 38.1641 71.0704 38.7318L71.2579 40.8933Z" fill="#623817"/>
<path d="M136.422 69.3881C154.854 69.3881 169.901 54.2475 169.901 34.8725C169.901 15.6902 156.359 0.830811 136.516 0.830811C118.177 0.830811 103.135 15.8777 103.135 34.9714C103.135 53.8725 116.958 69.3881 136.422 69.3881ZM138.589 66.6589C124.104 67.1329 113.948 53.685 113.198 33.6537C112.63 16.3464 120.625 4.02873 134.354 3.55998C148.932 3.09123 159.089 16.1589 159.745 35.7214C160.401 53.4923 152.505 66.1902 138.589 66.6589Z" fill="#623817"/>
<path d="M192.09 18.0391C192.09 9.67454 192.09 6.09641 199.517 4.21621V2.336H176.007V4.21621C183.434 6.09641 183.627 9.48183 183.627 18.0391V52.1798C183.627 60.5495 183.627 64.1225 176.194 66.0027V67.8829H199.705V66.0027C192.278 64.1225 192.09 60.737 192.09 52.1798V18.0391ZM201.21 30.737L218.325 14.6537C224.158 9.20058 229.892 4.12246 233.278 4.12246V2.336H210.71V4.12246C215.601 5.44016 219.08 9.20058 209.111 19.1693L193.97 34.4037C217.007 62.5235 220.111 65.7214 220.111 67.8829H238.262V66.0027C231.585 66.0964 226.226 60.1693 220.392 53.3048L201.21 30.737Z" fill="#623817"/>
<path d="M286.873 50.3933C280.009 61.7683 272.201 65.2475 262.894 65.2475C260.545 65.2475 256.311 65.1537 253.207 64.8725V35.1589L260.071 35.3464C270.415 35.6277 272.957 39.6693 273.894 45.0287H275.587L275.873 24.06H274.274C273.05 29.1381 270.04 32.2422 260.071 32.5235L253.207 32.711V5.06517C257.722 4.97141 258.759 4.87767 261.483 4.87767C272.108 4.87767 277.092 8.07558 280.858 19.0756L282.644 18.7006L281.514 2.336H237.316V4.21621C244.649 6.09641 244.743 9.67454 244.743 18.0391V52.1798C244.743 60.5495 244.649 64.1225 237.316 66.0027V67.8829H282.55L288.566 51.0495L286.873 50.3933Z" fill="#623817"/>
<path d="M58.5638 84.9332C59.1159 85.0165 59.6263 85.2457 60.0847 85.6207C60.543 85.9853 60.9024 86.4332 61.168 86.9749C61.4441 87.5165 61.5847 88.0946 61.5847 88.704C61.5847 89.4696 61.3868 90.1624 61.0013 90.7874C60.6107 91.4124 60.0326 91.9071 59.2722 92.2665C58.5222 92.6155 57.6368 92.7874 56.6263 92.7874H50.9388V77.5374H56.3972C57.4388 77.5374 58.3191 77.7144 59.043 78.0582C59.7774 78.3915 60.3243 78.8499 60.6888 79.4332C61.0482 80.0165 61.2305 80.678 61.2305 81.4124C61.2305 82.3186 60.9857 83.0686 60.5013 83.6624C60.0118 84.2457 59.3659 84.6728 58.5638 84.9332ZM52.918 84.1207H56.2722C57.1993 84.1207 57.9232 83.9071 58.4388 83.4749C58.9493 83.0321 59.2097 82.428 59.2097 81.6624C59.2097 80.8863 58.9493 80.2821 58.4388 79.8499C57.9232 79.4071 57.1888 79.1832 56.2305 79.1832H52.918V84.1207ZM56.4388 91.1415C57.4388 91.1415 58.2149 90.9124 58.7722 90.454C59.3243 89.9853 59.6055 89.329 59.6055 88.4957C59.6055 87.6519 59.3138 86.9853 58.7305 86.4957C58.1472 86.0113 57.3607 85.7665 56.3763 85.7665H52.918V91.1415H56.4388Z" fill="#623817"/>
<path d="M77.6956 77.5374L72.7372 87.0374V92.7874H70.7372V87.0374L65.7581 77.5374H67.9664L71.7372 85.2665L75.4872 77.5374H77.6956Z" fill="#623817"/>
<path d="M102.991 92.7874H101.012L92.9909 80.6415V92.7874H91.0117V77.5165H92.9909L101.012 89.6415V77.5165H102.991V92.7874Z" fill="#623817"/>
<path d="M111.048 77.5374V92.7874H109.069V77.5374H111.048Z" fill="#623817"/>
<path d="M121.97 92.9332C120.954 92.9332 120.053 92.7613 119.262 92.4124C118.47 92.053 117.845 91.5582 117.387 90.9332C116.939 90.2978 116.71 89.5582 116.699 88.7249H118.824C118.892 89.4332 119.184 90.0321 119.699 90.5165C120.225 91.0061 120.98 91.2457 121.97 91.2457C122.913 91.2457 123.658 91.0113 124.199 90.5374C124.751 90.0686 125.033 89.4644 125.033 88.7249C125.033 88.1415 124.871 87.6728 124.553 87.3082C124.23 86.9332 123.829 86.6571 123.345 86.4749C122.855 86.2821 122.21 86.0738 121.408 85.8499C120.392 85.5894 119.579 85.3238 118.97 85.0582C118.371 84.7978 117.855 84.3863 117.428 83.829C116.996 83.2769 116.783 82.5165 116.783 81.5582C116.783 80.7249 116.991 79.9905 117.408 79.3499C117.835 78.7144 118.434 78.2196 119.199 77.8707C119.96 77.5269 120.845 77.3499 121.845 77.3499C123.272 77.3499 124.439 77.7144 125.345 78.4332C126.262 79.1415 126.772 80.0894 126.887 81.2665H124.699C124.626 80.6832 124.324 80.1728 123.783 79.7249C123.241 79.2821 122.522 79.0582 121.637 79.0582C120.803 79.0582 120.121 79.2769 119.595 79.704C119.079 80.1363 118.824 80.7353 118.824 81.4957C118.824 82.053 118.975 82.5061 119.283 82.8499C119.6 83.1988 119.991 83.4696 120.449 83.6624C120.908 83.8446 121.553 84.053 122.387 84.2874C123.387 84.553 124.189 84.8238 124.803 85.0999C125.428 85.3655 125.954 85.7821 126.387 86.3499C126.829 86.9071 127.053 87.6624 127.053 88.6207C127.053 89.3707 126.85 90.079 126.449 90.7457C126.059 91.4019 125.475 91.928 124.699 92.329C123.934 92.7353 123.022 92.9332 121.97 92.9332Z" fill="#623817"/>
<path d="M144.408 77.5374V92.7874H142.408V85.8707H134.637V92.7874H132.658V77.5374H134.637V84.2249H142.408V77.5374H144.408Z" fill="#623817"/>
<path d="M152.455 77.5374V92.7874H150.475V77.5374H152.455Z" fill="#623817"/>
<path d="M167.918 77.5374V79.1624H163.772V92.7874H161.772V79.1624H157.605V77.5374H167.918Z" fill="#623817"/>
<path d="M186.419 92.9332C185.403 92.9332 184.502 92.7613 183.711 92.4124C182.919 92.053 182.294 91.5582 181.836 90.9332C181.388 90.2978 181.159 89.5582 181.148 88.7249H183.273C183.341 89.4332 183.633 90.0321 184.148 90.5165C184.674 91.0061 185.429 91.2457 186.419 91.2457C187.362 91.2457 188.107 91.0113 188.648 90.5374C189.2 90.0686 189.482 89.4644 189.482 88.7249C189.482 88.1415 189.32 87.6728 189.002 87.3082C188.679 86.9332 188.278 86.6571 187.794 86.4749C187.304 86.2821 186.659 86.0738 185.857 85.8499C184.841 85.5894 184.028 85.3238 183.419 85.0582C182.82 84.7978 182.304 84.3863 181.877 83.829C181.445 83.2769 181.232 82.5165 181.232 81.5582C181.232 80.7249 181.44 79.9905 181.857 79.3499C182.284 78.7144 182.883 78.2196 183.648 77.8707C184.409 77.5269 185.294 77.3499 186.294 77.3499C187.721 77.3499 188.888 77.7144 189.794 78.4332C190.711 79.1415 191.221 80.0894 191.336 81.2665H189.148C189.075 80.6832 188.773 80.1728 188.232 79.7249C187.69 79.2821 186.971 79.0582 186.086 79.0582C185.252 79.0582 184.57 79.2769 184.044 79.704C183.528 80.1363 183.273 80.7353 183.273 81.4957C183.273 82.053 183.424 82.5061 183.732 82.8499C184.049 83.1988 184.44 83.4696 184.898 83.6624C185.357 83.8446 186.002 84.053 186.836 84.2874C187.836 84.553 188.638 84.8238 189.252 85.0999C189.877 85.3655 190.403 85.7821 190.836 86.3499C191.278 86.9071 191.502 87.6624 191.502 88.6207C191.502 89.3707 191.299 90.079 190.898 90.7457C190.508 91.4019 189.924 91.928 189.148 92.329C188.383 92.7353 187.471 92.9332 186.419 92.9332Z" fill="#623817"/>
<path d="M204.024 92.9332C202.607 92.9332 201.316 92.6103 200.149 91.954C198.982 91.2874 198.055 90.3655 197.378 89.1832C196.696 87.9905 196.357 86.6519 196.357 85.1624C196.357 83.6624 196.696 82.3238 197.378 81.1415C198.055 79.9488 198.982 79.0269 200.149 78.3707C201.316 77.704 202.607 77.3707 204.024 77.3707C205.451 77.3707 206.753 77.704 207.92 78.3707C209.087 79.0269 210.003 79.9436 210.67 81.1207C211.337 82.303 211.67 83.6519 211.67 85.1624C211.67 86.6624 211.337 88.0061 210.67 89.1832C210.003 90.3655 209.087 91.2874 207.92 91.954C206.753 92.6103 205.451 92.9332 204.024 92.9332ZM204.024 91.204C205.076 91.204 206.029 90.9644 206.878 90.4749C207.738 89.9749 208.41 89.2665 208.899 88.3499C209.399 87.4332 209.649 86.3707 209.649 85.1624C209.649 83.928 209.399 82.8603 208.899 81.954C208.41 81.0374 207.743 80.3394 206.899 79.8499C206.05 79.3499 205.092 79.0999 204.024 79.0999C202.941 79.0999 201.972 79.3499 201.128 79.8499C200.279 80.3394 199.613 81.0374 199.128 81.954C198.639 82.8603 198.399 83.928 198.399 85.1624C198.399 86.3707 198.639 87.4332 199.128 88.3499C199.613 89.2665 200.279 89.9749 201.128 90.4749C201.988 90.9644 202.951 91.204 204.024 91.204Z" fill="#623817"/>
<path d="M228.958 92.7874H226.979L218.958 80.6415V92.7874H216.979V77.5165H218.958L226.979 89.6415V77.5165H228.958V92.7874Z" fill="#623817"/>
<path d="M237.016 77.5374V92.7874H235.036V77.5374H237.016Z" fill="#623817"/>
</svg>
